# File created by Blade
# Date/Time:  Wed Jan 21 18:34:41 2015
# Frame Rate: 120.000 fps
#------------------------------------------------------
:FULLY-SPECIFIED
:DEGREES
1814
root 2.461410 32.722146 -7.222312 43.548828 3.532167 1.148360
RightUpLeg -38.638925 -16.751758 8.540813
RightLeg -2.532854 -0.000000 0.000000
RightFoot -9.233555 -1.965733 22.464434
RightToeBase 21.474677 -0.000000 -0.000000
LeftUpLeg -40.343246 11.910395 -4.278408
LeftLeg 0.345076 -0.000000 -0.000000
LeftFoot -2.765568 -8.826990 -15.395012
LeftToeBase 3.719785 -0.000000 -0.000000
Spine -48.446215 -0.754835 -1.828362
RightShoulder -9.411816 28.208458 -40.801682
RightArm 20.963058 -25.696541 43.281898
RightForeArm 6.937689 0.000000 -1.135063
RightHand 11.548138 -0.000000 7.703422
RightHandThumb1 -24.326973 -0.000000 -32.862282
LeftShoulder -0.130110 -7.595783 33.170859
LeftArm 41.587627 3.220635 -35.312934
LeftForeArm 20.784710 0.000000 0.005603
LeftHand -19.538094 -0.000000 -4.646627
LeftHandThumb1 -26.253704 0.000000 33.147579
Head -2.263956 -4.761606 5.296020
1815
root 2.457314 32.723668 -7.199103 43.583410 3.651501 1.158562
RightUpLeg -38.594497 -16.735707 8.528278
RightLeg -2.548641 -0.000000 0.000000
RightFoot -9.280500 -2.067559 22.495990
RightToeBase 21.404915 -0.000000 -0.000000
LeftUpLeg -40.346004 11.878738 -4.246271
LeftLeg 0.327370 -0.000000 -0.000000
LeftFoot -2.731363 -8.881468 -15.396518
LeftToeBase 3.749456 -0.000000 -0.000000
Spine -48.394069 -0.776836 -1.792377
RightShoulder -9.687555 27.795714 -40.907606
RightArm 20.203676 -25.453125 42.905248
RightForeArm 6.881924 0.000000 -1.265004
RightHand 11.608424 -0.000000 7.750459
RightHandThumb1 -24.326973 -0.000000 -32.862282
LeftShoulder -0.433723 -7.417264 33.264976
LeftArm 40.730929 2.685074 -35.419248
LeftForeArm 20.738102 -0.000000 -0.088240
LeftHand -19.559667 -0.000000 -4.870803
LeftHandThumb1 -26.253704 0.000000 33.147579
Head -2.267401 -4.752763 5.160978
1816
root 2.452324 32.724508 -7.173866 43.591930 3.784019 1.169078
RightUpLeg -38.520886 -16.754081 8.537536
RightLeg -2.572530 -0.000000 0.000000
RightFoot -9.343187 -2.168948 22.515432
RightToeBase 21.411751 -0.000000 -0.000000
LeftUpLeg -40.324737 11.849227 -4.206394
LeftLeg 0.317179 -0.000000 -0.000000
LeftFoot -2.705656 -8.945078 -15.393231
LeftToeBase 3.752974 -0.000000 -0.000000
Spine -48.319501 -0.849048 -1.701949
RightShoulder -9.948205 27.520001 -41.026522
RightArm 19.404638 -25.176775 42.617929
RightForeArm 6.647492 0.000000 -1.439213
RightHand 11.676465 -0.000000 7.874866
RightHandThumb1 -24.326973 -0.000000 -32.862282
LeftShoulder -0.786018 -7.086204 33.320668
LeftArm 39.986280 2.112596 -35.385195
LeftForeArm 20.748562 -0.000000 -0.209822
LeftHand -19.657254 0.000000 -4.996985
LeftHandThumb1 -26.253704 0.000000 33.147579
Head -2.265913 -4.627102 5.051502
1817
root 2.447864 32.724815 -7.149793 43.625058 3.906529 1.179629
RightUpLeg -38.475464 -16.776035 8.558722
RightLeg -2.602973 -0.000000 0.000000
RightFoot -9.394990 -2.237717 22.547013
RightToeBase 21.374664 -0.000000 -0.000000
LeftUpLeg -40.333161 11.826380 -4.180110
LeftLeg 0.313079 -0.000000 -0.000000
LeftFoot -2.681810 -9.016584 -15.409865
LeftToeBase 3.771474 -0.000000 -0.000000
Spine -48.267349 -0.847280 -1.702753
RightShoulder -10.283182 27.170041 -41.180847
RightArm 18.576041 -24.949550 42.310518
RightForeArm 6.639429 -0.000000 -1.551458
RightHand 11.666497 -0.000000 7.795580
RightHandThumb1 -24.326973 -0.000000 -32.862282
LeftShoulder -1.030754 -7.006105 33.449450
LeftArm 39.099550 1.665184 -35.470813
LeftForeArm 20.773225 -0.000000 -0.316546
LeftHand -19.759306 0.000000 -5.132862
LeftHandThumb1 -26.253704 0.000000 33.147579
Head -2.267238 -4.624667 4.949973
1818
root 2.443941 32.724822 -7.124887 43.665551 3.999190 1.195990
RightUpLeg -38.445945 -16.781534 8.559610
RightLeg -2.615246 -0.000000 0.000000
RightFoot -9.460039 -2.307553 22.544897
RightToeBase 21.367012 -0.000000 -0.000000
LeftUpLeg -40.340632 11.821791 -4.183079
LeftLeg 0.297631 -0.000000 -0.000000
LeftFoot -2.656238 -9.079132 -15.402594
LeftToeBase 3.766646 -0.000000 -0.000000
Spine -48.222738 -0.840218 -1.713762
RightShoulder -10.613036 26.859034 -41.356558
RightArm 17.698601 -24.506738 42.125743
RightForeArm 6.382395 -0.000000 -1.685307
RightHand 11.751455 0.000000 7.644878
RightHandThumb1 -24.326973 -0.000000 -32.862282
LeftShoulder -1.316488 -6.847470 33.551085
LeftArm 38.336145 1.191983 -35.487559
LeftForeArm 20.782259 0.000000 -0.460793
LeftHand -19.803867 -0.000000 -5.245493
LeftHandThumb1 -26.253704 0.000000 33.147579
Head -2.284714 -4.626228 4.859508
1819
root 2.438987 32.724649 -7.097302 43.691815 4.108149 1.209073
RightUpLeg -38.399996 -16.826490 8.591673
RightLeg -2.633134 -0.000000 0.000000
RightFoot -9.510197 -2.337180 22.588175
RightToeBase 21.379313 -0.000000 -0.000000
LeftUpLeg -40.333232 11.813613 -4.165504
LeftLeg 0.292488 -0.000000 -0.000000
LeftFoot -2.634705 -9.175462 -15.439740
LeftToeBase 3.770537 -0.000000 -0.000000
Spine -48.174514 -0.833336 -1.718619
RightShoulder -10.956538 26.514038 -41.555717
RightArm 16.853291 -24.144057 41.938000
RightForeArm 6.297930 -0.000000 -1.793046
RightHand 12.011607 -0.000000 7.478319
RightHandThumb1 -24.326973 -0.000000 -32.862282
LeftShoulder -1.595470 -6.563948 33.613522
LeftArm 37.685573 0.590884 -35.462528
LeftForeArm 20.723876 -0.000000 -0.639860
LeftHand -19.801325 0.000000 -5.325768
LeftHandThumb1 -26.253704 0.000000 33.147579
Head -2.248211 -4.607944 4.739023
1820
root 2.434124 32.724650 -7.070845 43.726718 4.215217 1.222509
RightUpLeg -38.360579 -16.878649 8.633602
RightLeg -2.665422 -0.000000 0.000000
RightFoot -9.522716 -2.362629 22.563497
RightToeBase 21.317095 -0.000000 -0.000000
LeftUpLeg -40.327599 11.773471 -4.126220
LeftLeg 0.277578 -0.000000 -0.000000
LeftFoot -2.612592 -9.197625 -15.411926
LeftToeBase 3.731038 -0.000000 -0.000000
Spine -48.140048 -0.828500 -1.724750
RightShoulder -11.286723 26.126867 -41.722217
RightArm 16.069575 -23.835257 41.679447
RightForeArm 6.292184 -0.000000 -1.883974
RightHand 11.917733 0.000000 7.270865
RightHandThumb1 -24.326973 -0.000000 -32.862282
LeftShoulder -1.842383 -6.477647 33.732517
LeftArm 36.816528 0.090626 -35.539635
LeftForeArm 20.628031 -0.000000 -0.673457
LeftHand -19.864682 -0.000000 -5.245032
LeftHandThumb1 -26.253704 0.000000 33.147579
Head -2.221243 -4.616796 4.650149
1821
root 2.430373 32.725398 -7.041874 43.748249 4.290297 1.233480
RightUpLeg -38.305224 -16.887958 8.629354
RightLeg -2.681964 -0.000000 0.000000
RightFoot -9.560984 -2.405909 22.596773
RightToeBase 21.290827 -0.000000 -0.000000
LeftUpLeg -40.308591 11.787864 -4.126988
LeftLeg 0.267266 -0.000000 -0.000000
LeftFoot -2.578067 -9.281473 -15.446832
LeftToeBase 3.712186 -0.000000 -0.000000
Spine -48.102975 -0.812554 -1.731389
RightShoulder -11.602081 25.763919 -41.894844
RightArm 15.312681 -23.612800 41.423809
RightForeArm 6.385092 -0.000000 -1.979071
RightHand 11.563635 -0.000000 7.253578
RightHandThumb1 -24.326973 -0.000000 -32.862282
LeftShoulder -2.116721 -6.380950 33.831634
LeftArm 35.992822 -0.300115 -35.531610
LeftForeArm 20.523056 -0.000000 -0.723968
LeftHand -20.085918 -0.000000 -5.184810
LeftHandThumb1 -26.253704 0.000000 33.147579
Head -2.160687 -4.599875 4.553399
1822
root 2.424443 32.725442 -7.014588 43.777581 4.364911 1.248564
RightUpLeg -38.269217 -16.897876 8.636850
RightLeg -2.686173 -0.000000 0.000000
RightFoot -9.636483 -2.456228 22.612445
RightToeBase 21.328147 -0.000000 -0.000000
LeftUpLeg -40.298017 11.783577 -4.117823
LeftLeg 0.255143 -0.000000 -0.000000
LeftFoot -2.566962 -9.341996 -15.466625
LeftToeBase 3.768275 -0.000000 -0.000000
Spine -48.061896 -0.831283 -1.705295
RightShoulder -11.895263 25.310776 -42.054161
RightArm 14.630748 -23.199425 41.197982
RightForeArm 6.242922 -0.000000 -1.987062
RightHand 11.549833 -0.000000 7.405442
RightHandThumb1 -24.326973 -0.000000 -32.862282
LeftShoulder -2.458658 -6.074069 33.910180
LeftArm 35.317132 -0.989947 -35.585761
LeftForeArm 20.542319 -0.000000 -0.761875
LeftHand -20.220355 0.000000 -5.153391
LeftHandThumb1 -26.253704 0.000000 33.147579
Head -2.110770 -4.550340 4.424361
1823
root 2.418805 32.726140 -6.986957 43.800556 4.459704 1.260782
RightUpLeg -38.221884 -16.941194 8.670841
RightLeg -2.708958 -0.000000 0.000000
RightFoot -9.660182 -2.494665 22.573489
RightToeBase 21.278022 -0.000000 -0.000000
LeftUpLeg -40.276202 11.743654 -4.067893
LeftLeg 0.243958 -0.000000 -0.000000
LeftFoot -2.543773 -9.377400 -15.502193
LeftToeBase 3.741262 -0.000000 -0.000000
Spine -48.020970 -0.850353 -1.680285
RightShoulder -12.252819 24.895293 -42.211343
RightArm 14.045021 -22.872104 40.940897
RightForeArm 6.036395 -0.000000 -2.102936
RightHand 11.418235 0.000000 7.398225
RightHandThumb1 -24.326973 -0.000000 -32.862282
LeftShoulder -2.767012 -5.841356 34.027874
LeftArm 34.625286 -1.608090 -35.670476
LeftForeArm 20.546315 -0.000000 -0.851212
LeftHand -20.300380 -0.000000 -5.093920
LeftHandThumb1 -26.253704 0.000000 33.147579
Head -2.046928 -4.551737 4.313911
1824
root 2.414718 32.726023 -6.958086 43.826511 4.522455 1.270256
RightUpLeg -38.170504 -16.938823 8.666720
RightLeg -2.731924 -0.000000 0.000000
RightFoot -9.712499 -2.546211 22.618368
RightToeBase 21.261498 -0.000000 -0.000000
LeftUpLeg -40.258336 11.747146 -4.058759
LeftLeg 0.233367 -0.000000 -0.000000
LeftFoot -2.539843 -9.434564 -15.524908
LeftToeBase 3.793374 -0.000000 -0.000000
Spine -47.986741 -0.831281 -1.680559
RightShoulder -12.599721 24.446523 -42.397804
RightArm 13.398780 -22.263842 40.791834
RightForeArm 5.780158 0.000000 -2.218175
RightHand 11.542675 -0.000000 7.557806
RightHandThumb1 -24.326973 -0.000000 -32.862282
LeftShoulder -3.053783 -5.651611 34.135102
LeftArm 33.853140 -2.166557 -35.721051
LeftForeArm 20.542020 -0.000000 -0.842624
LeftHand -20.313794 -0.000000 -4.906936
LeftHandThumb1 -26.253704 0.000000 33.147579
Head -1.982867 -4.535868 4.175332
1825
root 2.410755 32.725137 -6.928549 43.861330 4.576363 1.283859
RightUpLeg -38.135159 -16.952386 8.670042
RightLeg -2.744738 -0.000000 0.000000
RightFoot -9.758857 -2.580374 22.578817
RightToeBase 21.221670 -0.000000 -0.000000
LeftUpLeg -40.230407 11.717685 -4.030128
LeftLeg 0.205821 -0.000000 -0.000000
LeftFoot -2.535332 -9.448844 -15.548574
LeftToeBase 3.784321 -0.000000 -0.000000
Spine -47.970115 -0.844482 -1.659360
RightShoulder -12.884866 24.103439 -42.561333
RightArm 12.709499 -21.973675 40.609242
RightForeArm 5.585873 -0.000000 -2.328657
RightHand 11.804712 0.000000 7.185035
RightHandThumb1 -24.326973 -0.000000 -32.862282
LeftShoulder -3.352406 -5.359221 34.248056
LeftArm 33.140614 -2.724804 -35.719506
LeftForeArm 20.542393 0.000000 -0.856546
LeftHand -20.479280 -0.000000 -4.840695
LeftHandThumb1 -26.253704 0.000000 33.147579
Head -1.888172 -4.479626 4.078126
